<svg id="Icons" xmlns="http://www.w3.org/2000/svg" viewBox="0 0 195.34 292.29">
  <defs>
    <style>
      .cls-1 {
        fill: #fff;
      }

      .cls-2 {
        fill: #e83e27;
      }
    </style>
  </defs>
  <title>logo_w_s</title>
  <g>
    <path class="cls-1" d="M195.34,272.66a6,6,0,0,1-3.59,5.49,186.77,186.77,0,0,1-27.32,9,149.83,149.83,0,0,1-37.72,5.13q-77.84,0-77.83-78.05V136.78a5.86,5.86,0,0,0-5.78-5.94H22a5.85,5.85,0,0,1-5.78-5.93v-4.58a6,6,0,0,1,1.66-4.16L111.2,18.62a5.72,5.72,0,0,1,4.13-1.78h0a5.85,5.85,0,0,1,5.77,5.93V73.56a5.85,5.85,0,0,0,5.78,5.93h57.28a5.86,5.86,0,0,1,5.78,5.93v39.49a5.85,5.85,0,0,1-5.78,5.93H126.88a5.86,5.86,0,0,0-5.78,5.94v61a101.82,101.82,0,0,0,1.41,18.89,19.23,19.23,0,0,0,7.9,12q6.5,4.83,19.71,4.83,14.59,0,37-10.65a5.79,5.79,0,0,1,8.24,5.34Z"/>
    <ellipse class="cls-2" cx="30.31" cy="31.12" rx="30.31" ry="31.12"/>
  </g>
</svg>
