<svg id="Icons" xmlns="http://www.w3.org/2000/svg" viewBox="0 0 410.33 394.53">
  <defs>
    <style>
      .cls-1 {
        fill: #fff;
      }

      .cls-2 {
        fill: #e83e27;
      }
    </style>
  </defs>
  <title>logo_w</title>
  <g>
    <g>
      <path class="cls-1" d="M289.7,272.66a6,6,0,0,1-3.59,5.49,186.54,186.54,0,0,1-27.33,9,149.69,149.69,0,0,1-37.71,5.13q-77.83,0-77.84-78.05V136.78a5.86,5.86,0,0,0-5.77-5.94H116.4a5.85,5.85,0,0,1-5.78-5.93v-4.58a6,6,0,0,1,1.66-4.16l93.28-97.55a5.69,5.69,0,0,1,4.12-1.78h0a5.85,5.85,0,0,1,5.78,5.93V73.56a5.85,5.85,0,0,0,5.78,5.93h57.28a5.86,5.86,0,0,1,5.78,5.93v39.49a5.85,5.85,0,0,1-5.78,5.93H221.24a5.86,5.86,0,0,0-5.78,5.94v61a102.82,102.82,0,0,0,1.4,18.89,19.29,19.29,0,0,0,7.91,12q6.49,4.83,19.71,4.83,14.6,0,37-10.65a5.79,5.79,0,0,1,8.24,5.34Z"/>
      <ellipse class="cls-2" cx="124.67" cy="31.12" rx="30.31" ry="31.12"/>
    </g>
    <g>
      <g>
        <path class="cls-1" d="M53.08,355.34H34.6v39.19H19.42V355.34H.94V342.75H53.08Z"/>
        <path class="cls-1" d="M85.7,392.62c-1.92.77-3.69,1.4-5.32,1.87a21.18,21.18,0,0,1-5.85.71c-2.16,0-3.67-.39-4.51-1.18a6.65,6.65,0,0,1-1.83-2.86,19.38,19.38,0,0,1-4.69,2.9,17,17,0,0,1-6.77,1.14,13,13,0,0,1-6.53-1.44,8.13,8.13,0,0,1-3.49-3.62,10.67,10.67,0,0,1-1-4.5,9.47,9.47,0,0,1,1.72-5.81,13,13,0,0,1,4.65-3.76,57.35,57.35,0,0,1,7.71-3l4.13-1.37c.93-.31,1.63-.55,2.09-.72a11.62,11.62,0,0,0,1.45-.68A7.46,7.46,0,0,0,66.37,366c-.72-1.05-2.3-1.57-4.72-1.57a16.87,16.87,0,0,0-8,1.94,28.34,28.34,0,0,0-6.73,5V361a23.89,23.89,0,0,1,5.28-2.93,30.15,30.15,0,0,1,5.93-1.7,34.46,34.46,0,0,1,6.26-.56q8,0,12.1,3.19a10.6,10.6,0,0,1,4.06,8.8V382.5a9.43,9.43,0,0,0,.38,3.12,1.4,1.4,0,0,0,1.4,1,8.06,8.06,0,0,0,3.35-1.08Zm-18.24-7.28v-9a35.77,35.77,0,0,0-6.8,3.5,4.91,4.91,0,0,0-2.15,4.2,3.78,3.78,0,0,0,1.08,2.91,3.49,3.49,0,0,0,2.49,1,5.27,5.27,0,0,0,2.67-.76A22.14,22.14,0,0,0,67.46,385.34Z"/>
        <path class="cls-1" d="M129.29,394.53H112.66l-14.22-18v18H85.19V342.75H98.44v30.37l13-16.62h15.72l-14.48,17.74Z"/>
        <path class="cls-1" d="M166.47,392.62c-1.92.77-3.69,1.4-5.32,1.87a21.23,21.23,0,0,1-5.85.71c-2.16,0-3.67-.39-4.52-1.18a6.63,6.63,0,0,1-1.82-2.86,19.58,19.58,0,0,1-4.69,2.9,17,17,0,0,1-6.77,1.14,13,13,0,0,1-6.53-1.44,8.08,8.08,0,0,1-3.49-3.62,10.67,10.67,0,0,1-1-4.5,9.41,9.41,0,0,1,1.72-5.81,13,13,0,0,1,4.64-3.76,58.45,58.45,0,0,1,7.71-3l4.14-1.37c.93-.31,1.63-.55,2.09-.72a11.62,11.62,0,0,0,1.45-.68,7.46,7.46,0,0,0-1.09-4.33c-.72-1.05-2.3-1.57-4.72-1.57a16.87,16.87,0,0,0-8,1.94,28.14,28.14,0,0,0-6.73,5V361a23.89,23.89,0,0,1,5.28-2.93,30.15,30.15,0,0,1,5.93-1.7,34.46,34.46,0,0,1,6.26-.56q8,0,12.09,3.19a10.57,10.57,0,0,1,4.06,8.8V382.5a9.39,9.39,0,0,0,.39,3.12,1.4,1.4,0,0,0,1.4,1,8.06,8.06,0,0,0,3.35-1.08Zm-18.24-7.28v-9a35.77,35.77,0,0,0-6.8,3.5,4.91,4.91,0,0,0-2.15,4.2,3.78,3.78,0,0,0,1.08,2.91,3.48,3.48,0,0,0,2.49,1,5.27,5.27,0,0,0,2.67-.76A22.93,22.93,0,0,0,148.23,385.34Z"/>
        <path class="cls-1" d="M205.94,394.53h-13.1V374.8c0-.15,0-.29,0-.43a7.66,7.66,0,0,0,0-.87,11.17,11.17,0,0,0-1.13-5q-1.14-2.28-4.3-2.28a6.33,6.33,0,0,0-4.36,1.7,22.47,22.47,0,0,0-3.61,4.28v22.34H166.39V342.75h13.09V362a18.47,18.47,0,0,1,6.41-4.83,17.65,17.65,0,0,1,6.73-1.29q13.32,0,13.32,15.35Z"/>
        <path class="cls-1" d="M222.64,394.53H209.5v-38h13.14Z"/>
        <path class="cls-1" d="M259.12,358.55,254.28,372c-2-1.94-4-2.92-6-2.92a6.7,6.7,0,0,0-4.78,1.93q-2,1.92-3.88,7.12v16.36h-13.1v-38h13.1v9.19a19,19,0,0,1,4.37-6.63,9.92,9.92,0,0,1,7.35-3.23,10.27,10.27,0,0,1,3.88.67A29.83,29.83,0,0,1,259.12,358.55Z"/>
        <path class="cls-1" d="M298.28,375.48a21,21,0,0,1-2.4,10.12,17.21,17.21,0,0,1-7.19,7,27.64,27.64,0,0,1-23.32,0,17.11,17.11,0,0,1-7.17-7,21.06,21.06,0,0,1-2.38-10.12,22,22,0,0,1,1.32-7.81,17.43,17.43,0,0,1,4.05-6.22,18.15,18.15,0,0,1,6.67-4.17,26.58,26.58,0,0,1,9.17-1.45,26.86,26.86,0,0,1,9.26,1.47,18,18,0,0,1,6.66,4.13,17.58,17.58,0,0,1,4,6.2A22.14,22.14,0,0,1,298.28,375.48Zm-13.79,0a11.61,11.61,0,0,0-1.91-7.08,7.25,7.25,0,0,0-11.06,0,11.54,11.54,0,0,0-1.91,7.08,11.67,11.67,0,0,0,1.93,7.09,6.39,6.39,0,0,0,5.49,2.62,6.46,6.46,0,0,0,5.55-2.6A11.79,11.79,0,0,0,284.49,375.48Z"/>
        <path class="cls-1" d="M334.21,394.53H319V342.75h15.21Z"/>
        <path class="cls-1" d="M368.56,392.32a30.28,30.28,0,0,1-5.62,1.95,27.34,27.34,0,0,1-6.86.93q-14.16,0-14.15-14.2V365.84H336v-2.36l17.57-18.37h1.49V356.5h12.52v9.34H355.06V378a17.69,17.69,0,0,0,.26,3.44,3.52,3.52,0,0,0,1.43,2.19,6.07,6.07,0,0,0,3.59.88c2.08,0,4.83-.9,8.22-2.69Z"/>
        <path class="cls-1" d="M410.33,375.48a20.85,20.85,0,0,1-2.4,10.12,17.16,17.16,0,0,1-7.19,7,27.64,27.64,0,0,1-23.32,0,17,17,0,0,1-7.16-7,21.07,21.07,0,0,1-2.39-10.12,21.8,21.8,0,0,1,1.33-7.81,17.27,17.27,0,0,1,4-6.22,18.24,18.24,0,0,1,6.67-4.17,29.81,29.81,0,0,1,18.43,0,18,18,0,0,1,6.66,4.13,17.58,17.58,0,0,1,4,6.2A22.14,22.14,0,0,1,410.33,375.48Zm-13.79,0a11.54,11.54,0,0,0-1.91-7.08,7.25,7.25,0,0,0-11.06,0,14,14,0,0,0,0,14.17,7.14,7.14,0,0,0,11,0A11.72,11.72,0,0,0,396.54,375.48Z"/>
      </g>
      <ellipse class="cls-2" cx="216.07" cy="347.7" rx="5.41" ry="5.55"/>
    </g>
  </g>
</svg>
